<svg width="729" height="741" viewBox="0 0 729 741" fill="none" xmlns="http://www.w3.org/2000/svg">
<path d="M698.376 713.058C689.234 730.029 669.833 737.314 669.833 737.314C669.833 737.314 665.252 717.084 674.394 700.114C683.536 683.143 702.938 675.858 702.938 675.858C702.938 675.858 707.518 696.088 698.376 713.058Z" fill="#201F30"/>
<path d="M692.093 707.475C675.588 717.415 669.232 737.157 669.232 737.157C669.232 737.157 689.635 740.785 706.139 730.845C722.644 720.906 729 701.163 729 701.163C729 701.163 708.597 697.536 692.093 707.475Z" fill="#F47458"/>
<path d="M322.061 214.726H425.037V216.198H322.061V214.726Z" fill="#2B221E"/>
<path d="M350.011 215.83H351.482V229.451H350.011V215.83Z" fill="#2B221E"/>
<path d="M394.879 215.83H396.351V229.451H394.879V215.83Z" fill="#2B221E"/>
<path d="M269.836 285.408H372.812V286.88H269.836V285.408Z" fill="#2B221E"/>
<path d="M343.391 272.155H344.862V285.776H343.391V272.155Z" fill="#2B221E"/>
<path d="M298.523 272.155H299.994V285.776H298.523V272.155Z" fill="#2B221E"/>
<path d="M133.025 318.54H236.001V320.013H133.025V318.54Z" fill="#2B221E"/>
<path d="M206.58 305.288H208.051V318.909H206.58V305.288Z" fill="#2B221E"/>
<path d="M161.712 305.288H163.183V318.909H161.712V305.288Z" fill="#2B221E"/>
<path d="M143.322 660.172H246.299V661.644H143.322V660.172Z" fill="#2B221E"/>
<path d="M216.877 646.919H218.348V660.54H216.877V646.919Z" fill="#2B221E"/>
<path d="M172.009 646.919H173.48V660.54H172.009V646.919Z" fill="#2B221E"/>
<path d="M319.118 423.828H422.095V425.3H319.118V423.828Z" fill="#2B221E"/>
<path d="M392.672 410.575H394.144V424.196H392.672V410.575Z" fill="#2B221E"/>
<path d="M347.804 410.575H349.275V424.196H347.804V410.575Z" fill="#2B221E"/>
<path d="M286.754 601.27H389.73V602.742H286.754V601.27Z" fill="#2B221E"/>
<path d="M360.308 588.017H361.779V601.638H360.308V588.017Z" fill="#2B221E"/>
<path d="M315.44 588.017H316.911V601.638H315.44V588.017Z" fill="#2B221E"/>
<path d="M121.991 547.521H224.968V548.994H121.991V547.521Z" fill="#2B221E"/>
<path d="M195.546 534.269H197.018V547.89H195.546V534.269Z" fill="#2B221E"/>
<path d="M150.678 534.269H152.149V547.89H150.678V534.269Z" fill="#2B221E"/>
<path d="M599.376 712.921C592.243 714.306 585.337 709.642 583.95 702.502C582.563 695.362 587.221 688.451 594.354 687.065C601.487 685.68 608.393 690.344 609.78 697.484C611.167 704.624 606.509 711.535 599.376 712.921Z" fill="#3F3D56"/>
<path d="M472.07 737.649C464.937 739.035 458.031 734.37 456.644 727.23C455.257 720.09 459.915 713.179 467.048 711.793C474.18 710.408 481.087 715.073 482.474 722.213C483.861 729.352 479.203 736.264 472.07 737.649Z" fill="#3F3D56"/>
<path d="M267.72 487.308C263.305 488.166 259.029 485.278 258.17 480.858C257.312 476.438 260.196 472.16 264.611 471.302C269.027 470.444 273.302 473.332 274.161 477.752C275.019 482.172 272.136 486.45 267.72 487.308Z" fill="#3F3D56"/>
<rect width="55" height="58" transform="matrix(-0.898852 0.438251 0.438251 0.898852 433.73 532.041)" fill="#0E60FF"/>
<rect width="93" height="98" rx="46.5" transform="matrix(-0.981653 0.190678 0.190678 0.981653 449.098 425.281)" fill="#F47458"/>
<path d="M411.23 633.836L603.403 596.508L618.558 452.38L341.98 506.103L342.388 506.855L411.23 633.836ZM602.254 595.454L411.893 632.43L343.897 507.009L617.134 453.935L602.254 595.454Z" fill="#201F30"/>
<path d="M445.301 711.546L616.272 678.336L616.033 677.105L446.292 710.076L434.693 650.361L590.061 620.182L594.551 602.976L593.339 602.659L589.048 619.1L433.223 649.368L445.301 711.546Z" fill="#201F30"/>
<path d="M475.345 593.722L580.249 591.95L601.68 516.577L450.702 519.128L450.847 519.567L475.345 593.722Z" fill="#00FFC2"/>
<path d="M336.174 494.618L337.302 494.071L323.237 465.025L276.023 474.196L276.262 475.428L322.53 466.441L336.174 494.618Z" fill="#201F30"/>
<path d="M363.813 544.665L613.132 496.237L613.371 497.468L364.052 545.896L363.813 544.665Z" fill="#201F30"/>
<path d="M386.902 587.252L608.079 544.29L608.318 545.522L387.141 588.484L386.902 587.252Z" fill="#201F30"/>
<path d="M479.777 479.976L481.007 479.737L507.195 614.557L505.965 614.796L479.777 479.976Z" fill="#201F30"/>
<path d="M424.7 490.634L459.717 623.736L458.505 624.055L423.488 490.953L424.7 490.634Z" fill="#201F30"/>
<path d="M536.043 469.006L537.287 468.847L554.696 605.372L553.453 605.53L536.043 469.006Z" fill="#201F30"/>
<path d="M291.048 233.845C291.048 233.845 280.295 264.479 286.912 269.192C293.529 273.904 264.58 312.393 264.58 312.393L229.841 302.967L248.865 270.763C248.865 270.763 251.346 238.558 251.346 233.845C251.346 229.132 291.048 233.845 291.048 233.845Z" fill="#EEE0D9"/>
<path opacity="0.1" d="M291.048 233.845C291.048 233.845 280.295 264.479 286.912 269.192C293.529 273.904 264.58 312.393 264.58 312.393L229.841 302.967L248.865 270.763C248.865 270.763 251.346 238.558 251.346 233.845C251.346 229.132 291.048 233.845 291.048 233.845Z" fill="black"/>
<path d="M309.096 452.209C309.096 452.209 312.235 491.482 309.096 511.905C305.957 532.327 301.249 588.882 301.249 588.882C301.249 588.882 301.249 695.707 283.986 697.278C266.722 698.849 254.167 700.42 252.598 694.136C251.028 687.852 260.445 684.71 255.737 681.568C251.028 678.426 249.459 667.43 255.737 654.862C262.014 642.294 255.737 515.047 255.737 515.047L225.918 595.166C225.918 595.166 222.779 661.146 219.64 670.571C216.502 679.997 222.779 697.278 211.793 698.849C200.808 700.42 188.252 690.994 181.975 687.852C175.697 684.71 191.391 684.71 188.252 683.139C185.113 681.568 175.697 676.855 178.836 675.284C181.975 673.713 185.114 598.307 185.114 598.307C185.114 598.307 193.745 437.284 204.731 431.001C215.717 424.717 222.779 435.54 222.779 435.54L309.096 452.209Z" fill="#201F30"/>
<path d="M280.847 690.994V703.561C280.847 703.561 294.972 737.724 280.847 737.724C266.723 737.724 255.737 741.264 255.737 736.551V694.136L280.847 690.994Z" fill="#201F30"/>
<path d="M192.317 689.752L190.256 702.149C190.256 702.149 170.718 733.532 184.651 735.849C198.584 738.166 208.841 743.46 209.614 738.811L216.572 696.97L192.317 689.752Z" fill="#201F30"/>
<path d="M277.708 280.974C277.708 280.974 269.861 304.538 257.306 299.826L244.75 295.113L222.779 445.924C222.779 445.924 240.042 471.06 265.153 455.35C290.263 439.641 277.708 280.974 277.708 280.974Z" fill="white"/>
<path d="M255.736 276.261L248.674 261.337C248.674 261.337 207.085 280.974 200.807 287.258C194.53 293.542 194.53 302.967 194.53 302.967L205.515 342.241C205.515 342.241 202.377 428.644 202.377 431.786C202.377 434.928 191.391 452.208 199.238 445.924C207.085 439.64 208.654 433.357 214.932 442.782C221.209 452.208 235.334 463.205 235.334 463.205L255.736 276.261Z" fill="#F47458"/>
<path d="M200.807 389.37L205.516 433.357C205.516 433.357 233.765 458.492 227.487 460.063C221.21 461.634 218.071 455.35 218.071 455.35C218.071 455.35 207.085 466.347 200.807 460.063C194.53 453.779 178.836 394.083 178.836 394.083L200.807 389.37Z" fill="#EEE0D9"/>
<path d="M282.2 255.135C267.162 259.292 251.598 250.46 247.437 235.407C243.276 220.355 252.093 204.782 267.13 200.625C282.168 196.468 297.732 205.3 301.893 220.353C306.054 235.405 297.237 250.978 282.2 255.135Z" fill="#EEE0D9"/>
<path d="M263.436 189.522C269.412 187.637 275.842 185.744 281.832 187.593C284.625 188.58 287.235 190.025 289.555 191.868C296.246 196.77 302.71 203.478 303.021 211.769L300.651 211.526C301.226 213.603 302.254 215.527 303.662 217.158C303.119 216.365 302.502 218.06 303.017 218.872L307.511 225.957C303.246 225.606 299.225 229.815 299.765 234.064C297.011 225.154 293.232 215.108 284.496 211.86C280.09 210.222 275.219 210.696 270.549 211.213C266.241 211.69 261.742 212.253 258.166 214.704C254.591 217.156 252.345 222.131 254.37 225.968C252.374 225.843 250.688 227.677 250.259 229.632C249.83 231.586 250.339 233.61 250.845 235.546C249.283 237.457 246.319 235.34 244.907 233.314C241.593 228.559 238.391 223.407 237.872 217.634C237.354 211.86 240.376 205.37 245.953 203.809C245.069 203.251 244.437 202.372 244.19 201.356L248.683 199.695C247.469 199.852 246.238 199.583 245.201 198.932C247.61 200.455 260.478 190.454 263.436 189.522Z" fill="#201F30"/>
<path d="M269.861 271.548C269.861 271.548 282.637 259.016 287.235 259.784C291.832 260.552 298.11 271.548 298.11 271.548C298.11 271.548 335.776 284.116 334.206 296.684C332.637 309.251 315.373 370.518 315.373 370.518C315.373 370.518 301.249 444.353 313.804 452.208C326.359 460.063 254.167 480.485 252.597 471.06C251.028 461.634 247.889 367.377 252.597 353.238C257.306 339.099 269.861 271.548 269.861 271.548Z" fill="#F47458"/>
<path d="M214.932 296.684H195.526C195.526 296.684 181.974 356.38 180.405 362.664C178.835 368.948 175.697 398.796 177.266 398.796C178.835 398.796 210.223 392.512 210.223 397.225L214.932 296.684Z" fill="#F47458"/>
<path d="M215.589 454.511H289.879C297.129 421.128 297.735 388.875 289.879 358.059H215.589C227.578 388.32 228.327 420.353 215.589 454.511Z" fill="#2B221E"/>
<path d="M320.082 408.509L298.11 417.934C298.11 417.934 255.737 424.218 255.737 406.938C255.737 389.657 298.11 399.083 298.11 399.083L312.236 394.562L320.082 408.509Z" fill="#EEE0D9"/>
<path d="M315.374 287.258L334.207 291.971L348.332 375.231C348.332 375.231 353.04 397.225 345.193 398.796C337.346 400.367 315.374 412.934 315.374 412.934C315.374 412.934 312.235 389.37 305.958 389.37L321.652 376.802L312.235 321.819L315.374 287.258Z" fill="#F47458"/>
<path d="M581.708 448.125H684.685V449.597H581.708V448.125Z" fill="#2B221E"/>
<path d="M655.262 434.872H656.733V448.493H655.262V434.872Z" fill="#2B221E"/>
<path d="M610.394 434.872H611.865V448.493H610.394V434.872Z" fill="#2B221E"/>
<path d="M545.666 230.188H648.643V231.66H545.666V230.188Z" fill="#2B221E"/>
<path d="M573.617 231.292H575.088V244.913H573.617V231.292Z" fill="#2B221E"/>
<path d="M618.485 231.292H619.956V244.913H618.485V231.292Z" fill="#2B221E"/>
<path d="M421.954 375.233H524.931V376.706H421.954V375.233Z" fill="#2B221E"/>
<path d="M449.905 376.338H451.376V389.959H449.905V376.338Z" fill="#2B221E"/>
<path d="M494.773 376.338H496.244V389.959H494.773V376.338Z" fill="#2B221E"/>
<path d="M617.014 374.497H719.99V375.97H617.014V374.497Z" fill="#2B221E"/>
<path d="M644.964 375.602H646.436V389.223H644.964V375.602Z" fill="#2B221E"/>
<path d="M689.834 375.602H691.305V389.223H689.834V375.602Z" fill="#2B221E"/>
<path d="M493.442 300.87H596.419V302.342H493.442V300.87Z" fill="#2B221E"/>
<path d="M566.997 287.617H568.468V301.238H566.997V287.617Z" fill="#2B221E"/>
<path d="M522.129 287.617H523.6V301.238H522.129V287.617Z" fill="#2B221E"/>
</svg>
